<svg width="35" height="38" viewBox="0 0 35 38" fill="none" xmlns="http://www.w3.org/2000/svg">
<path d="M26.3892 17.3338C27.1623 17.3338 27.7891 16.671 27.7891 15.8533C27.7891 15.0357 27.1623 14.3728 26.3892 14.3728C25.616 14.3728 24.9892 15.0357 24.9892 15.8533C24.9892 16.671 25.616 17.3338 26.3892 17.3338Z" fill="#BDF9F7"/>
<path d="M8.16144 23.7596C8.9346 23.7596 9.56137 23.0968 9.56137 22.2791C9.56137 21.4614 8.9346 20.7986 8.16144 20.7986C7.38828 20.7986 6.76151 21.4614 6.76151 22.2791C6.76151 23.0968 7.38828 23.7596 8.16144 23.7596Z" fill="#BDF9F7"/>
<path d="M20.3133 17.3338C21.0865 17.3338 21.7132 16.671 21.7132 15.8533C21.7132 15.0357 21.0865 14.3728 20.3133 14.3728C19.5402 14.3728 18.9134 15.0357 18.9134 15.8533C18.9134 16.671 19.5402 17.3338 20.3133 17.3338Z" fill="#BDF9F7"/>
<path d="M8.16144 17.3338C8.9346 17.3338 9.56137 16.671 9.56137 15.8533C9.56137 15.0357 8.9346 14.3728 8.16144 14.3728C7.38828 14.3728 6.76151 15.0357 6.76151 15.8533C6.76151 16.671 7.38828 17.3338 8.16144 17.3338Z" fill="#BDF9F7"/>
<path d="M14.2373 17.3338C15.0104 17.3338 15.6372 16.671 15.6372 15.8533C15.6372 15.0357 15.0104 14.3728 14.2373 14.3728C13.4641 14.3728 12.8373 15.0357 12.8373 15.8533C12.8373 16.671 13.4641 17.3338 14.2373 17.3338Z" fill="#BDF9F7"/>
<path d="M12.8373 22.279C12.8373 22.692 12.9897 23.0545 13.2468 23.3265C13.504 23.5984 13.8468 23.7596 14.2373 23.7596V20.8086C13.4659 20.8086 12.8373 21.4632 12.8373 22.279Z" fill="#BDF9F7"/>
<path d="M33.7888 18.2101C34.2459 18.2101 34.6173 17.8173 34.6173 17.3339V9.20604C34.6173 6.28525 32.3698 3.89827 29.5985 3.89827H27.2081V1.8235C27.2081 1.34006 26.8367 0.947266 26.3796 0.947266C25.9225 0.947266 25.5511 1.34006 25.5511 1.8235V3.90834H18.0562V1.8235C18.0562 1.34006 17.6848 0.947266 17.2277 0.947266C16.7706 0.947266 16.3992 1.34006 16.3992 1.8235V3.90834H8.97097V1.8235C8.97097 1.34006 8.59956 0.947266 8.14244 0.947266C7.70437 0.947266 7.33296 1.34006 7.33296 1.8235V3.90834H5.01879C2.24751 3.89827 0 6.28525 0 9.20604V32.25C0 35.1708 2.24751 37.5578 5.01879 37.5578H22.6179C22.6465 37.5578 22.675 37.5578 22.7036 37.5578L22.7608 37.5477L22.8179 37.5578C22.8465 37.5578 22.875 37.5578 22.8941 37.5578C23.1131 37.5578 23.3322 37.4571 23.4845 37.2859L34.3887 25.3207C34.6173 25.0689 34.684 24.6963 34.5506 24.374C34.4173 24.0517 34.1221 23.8402 33.7888 23.8402H27.0843C24.3226 23.8402 22.0655 26.2171 22.0655 29.148V35.8053H5.01879C3.16174 35.8053 1.65706 34.2039 1.65706 32.25V9.20604C1.65706 7.24206 3.16174 5.65074 5.01879 5.65074H7.33296V7.73557C7.33296 8.21901 7.70437 8.61181 8.16149 8.61181C8.61861 8.61181 8.99002 8.21901 8.99002 7.73557V5.65074H16.4182V7.73557C16.4182 8.21901 16.7896 8.61181 17.2467 8.61181C17.7039 8.61181 18.0753 8.21901 18.0753 7.73557V5.65074H25.5701V7.73557C25.5701 8.21901 25.9415 8.61181 26.3987 8.61181C26.8558 8.61181 27.2272 8.21901 27.2272 7.73557V5.65074H29.6175C31.4746 5.65074 32.9793 7.25213 32.9793 9.20604V17.3339C32.9698 17.8173 33.3412 18.2101 33.7888 18.2101ZM23.7226 29.148C23.7226 27.184 25.2273 25.5927 27.0843 25.5927H31.846L23.7131 34.5162V29.148H23.7226Z" fill="#BDF9F7"/>
</svg>
