<svg width="50" height="45" viewBox="0 0 50 45" fill="none" xmlns="http://www.w3.org/2000/svg">
<path d="M38.4256 14.6196L34.563 14.4185L32.4411 5.94481C32.0605 4.42471 30.552 3.5313 29.0791 3.95361C27.6062 4.37591 26.7173 5.9567 27.0979 7.47679L27.2235 7.9781L13.3224 18.8274L8.77054 20.1325C5.81691 20.9793 4.03909 24.1409 4.80038 27.1811C5.45436 29.7927 7.76381 31.4704 10.2579 31.3706L15.684 41.9735C15.8335 42.2686 16.1624 42.4083 16.4679 42.3207C16.5071 42.3094 16.5521 42.2879 16.5892 42.2686L21.3601 39.8261C21.3679 39.8238 21.3758 39.8216 21.3816 39.8112C21.6631 39.6612 21.891 39.4312 22.0479 39.1522C22.2765 38.7574 22.3436 38.2875 22.2342 37.8509C22.1229 37.4062 21.8551 37.041 21.4784 36.811L20.6305 36.3088L17.2865 29.9967L33.1845 31.8167L33.31 32.318C33.6907 33.8381 35.1991 34.7316 36.672 34.3093C38.1449 33.8869 39.0338 32.3062 38.6532 30.7861L36.5313 22.3123L39.7825 20.0716C40.0324 19.8959 40.1478 19.5855 40.0729 19.2864L39.0362 15.1465C38.9712 14.8532 38.7241 14.638 38.4256 14.6196ZM6.14009 26.797C5.56912 24.5168 6.90539 22.1405 9.11474 21.507L13.126 20.3569L15.1993 28.6366L11.188 29.7867C8.97086 30.4224 6.71308 29.0852 6.14009 26.797ZM19.7698 37.4655L20.7754 38.0611C20.8641 38.1137 20.8922 38.1923 20.9024 38.2327C20.9125 38.2732 20.9249 38.3563 20.8726 38.4493C20.8494 38.4906 20.8084 38.5283 20.7655 38.558L16.6046 40.6869L11.7066 31.1199L15.6866 29.9788L19.5086 37.1938C19.5703 37.3061 19.6613 37.4013 19.7698 37.4655ZM16.5879 28.4811L14.4032 19.7567L27.5882 9.4681L32.814 30.3371L16.5879 28.4811ZM37.3291 31.1657C37.5195 31.9257 37.0721 32.7213 36.3357 32.9324C35.5992 33.1436 34.84 32.694 34.6497 31.9339L34.4776 31.2467L34.4088 30.9717L28.6728 8.06519L28.6039 7.79028L28.4318 7.10301C28.2415 6.34296 28.6889 5.5474 29.4253 5.33625C30.1618 5.12509 30.9209 5.57472 31.1113 6.33477L33.3567 15.3017L35.0837 22.1987L37.3291 31.1657ZM38.6253 19.1728L36.1845 20.8605L34.9353 15.8717L37.8377 16.0275L38.6253 19.1728Z" fill="#BDF9F7"/>
<path d="M44.5694 15.1702L40.5756 16.3105L40.9203 17.6815L44.9141 16.5411L44.5694 15.1702Z" fill="#BDF9F7"/>
<path d="M41.4488 7.19729L38.6502 10.2339L39.6268 11.2234L42.4254 8.18684L41.4488 7.19729Z" fill="#BDF9F7"/>
<path d="M42.57 22.549L42.1797 23.9612L46.0232 25.0969L46.4134 23.6847L42.57 22.549Z" fill="#BDF9F7"/>
<path d="M12.1901 22.0097L10.8424 22.3955L11.537 25.1647L12.8847 24.7789L12.1901 22.0097Z" fill="#BDF9F7"/>
<path d="M9.53859 22.7531L8.19089 23.1389L8.88543 25.9081L10.2331 25.5223L9.53859 22.7531Z" fill="#BDF9F7"/>
</svg>
