<svg width="40" height="42" viewBox="0 0 40 42" fill="none" xmlns="http://www.w3.org/2000/svg">
<path d="M6.59467 20.9208C6.59467 19.3792 5.61577 18.064 4.27623 17.622C4.48231 16.544 4.79144 15.4875 5.2036 14.4742C5.34786 14.1184 5.1933 13.7196 4.85326 13.5686C4.51322 13.4177 4.13197 13.5794 3.98771 13.9352C3.52402 15.0779 3.18399 16.2637 2.9573 17.4819C1.29832 17.6652 0 19.1421 0 20.9208C0 22.6996 1.29832 24.1765 2.9573 24.349C3.18399 25.5671 3.52402 26.7638 3.98771 27.8957C4.09075 28.1544 4.33805 28.3161 4.59566 28.3161C4.67809 28.3161 4.77083 28.2946 4.85326 28.2622C5.1933 28.1113 5.34786 27.7124 5.2036 27.3567C4.79144 26.3433 4.48231 25.2869 4.27623 24.2088C5.61577 23.7776 6.59467 22.4624 6.59467 20.9208ZM3.55494 22.9691C3.50342 22.9691 3.4519 22.9691 3.40037 22.9799C3.39007 22.9799 3.36946 22.9906 3.35916 22.9906C3.33855 22.9906 3.31794 22.9906 3.29733 22.9906C2.20509 22.9906 1.31893 22.0635 1.31893 20.9208C1.31893 19.7781 2.20509 18.851 3.29733 18.851C3.31794 18.851 3.33855 18.851 3.35916 18.851C3.36946 18.851 3.39007 18.8618 3.40037 18.8618C3.43129 18.8726 3.4725 18.8726 3.50342 18.8726C3.51372 18.8726 3.53433 18.8726 3.54463 18.8726C4.51322 19.0019 5.27573 19.8751 5.27573 20.9208C5.27573 21.9665 4.52353 22.8397 3.55494 22.9691Z" fill="#BDF9F7"/>
<path d="M39.568 20.9208C39.568 19.142 38.2697 17.6651 36.6107 17.4927C36.384 16.2745 36.044 15.0779 35.5803 13.9459C35.436 13.5902 35.0548 13.4285 34.7148 13.5794C34.3747 13.7303 34.2201 14.1292 34.3644 14.4849C34.7766 15.4983 35.0857 16.5548 35.2918 17.6328C33.9522 18.0748 32.9733 19.3792 32.9733 20.9316C32.9733 22.4732 33.9522 23.7884 35.2918 24.2304C35.0857 25.3084 34.7766 26.3649 34.3644 27.3782C34.2201 27.734 34.3747 28.1329 34.7148 28.2838C34.7972 28.3161 34.8899 28.3377 34.9724 28.3377C35.23 28.3377 35.4773 28.176 35.5803 27.9172C36.044 26.7745 36.384 25.5887 36.6107 24.3705C38.2697 24.1765 39.568 22.6996 39.568 20.9208ZM36.2707 22.9906C36.2501 22.9906 36.2295 22.9906 36.2089 22.9906C36.1986 22.9906 36.1779 22.9798 36.1676 22.9798C36.1161 22.9691 36.0646 22.9691 36.0131 22.9691C35.0445 22.8397 34.2923 21.9665 34.2923 20.9208C34.2923 19.8643 35.0445 19.0019 36.0234 18.8725C36.0337 18.8725 36.044 18.8725 36.0646 18.8725C36.0955 18.8725 36.1367 18.8725 36.1676 18.8618C36.1779 18.8618 36.1986 18.851 36.2089 18.851C36.2295 18.851 36.2501 18.851 36.2707 18.851C37.3629 18.851 38.2491 19.7781 38.2491 20.9208C38.2491 22.0635 37.3629 22.9906 36.2707 22.9906Z" fill="#BDF9F7"/>
<path d="M29.4389 7.80111C30.5106 8.67431 31.4792 9.67688 32.3138 10.8088C32.4478 10.9813 32.6435 11.0783 32.8393 11.0783C32.9836 11.0783 33.1175 11.0352 33.2412 10.9382C33.5297 10.701 33.5812 10.2698 33.3648 9.96794C32.4684 8.74978 31.4173 7.66097 30.253 6.71231C29.9645 6.47514 29.5523 6.53983 29.3256 6.84167C29.0989 7.14352 29.1504 7.57473 29.4389 7.80111Z" fill="#BDF9F7"/>
<path d="M25.9458 36.1751C24.9772 36.6063 23.9674 36.9297 22.937 37.1453C22.5248 35.7439 21.2677 34.7197 19.7839 34.7197C18.3104 34.7197 17.0533 35.7439 16.6308 37.1453C15.6004 36.9297 14.5906 36.6063 13.622 36.1751C13.282 36.0241 12.9007 36.1859 12.7565 36.5416C12.6122 36.8974 12.7668 37.2962 13.1068 37.4471C14.199 37.9323 15.3325 38.288 16.4969 38.5252C16.672 40.2608 18.0734 41.6191 19.7736 41.6191C21.4738 41.6191 22.8855 40.2608 23.0503 38.5252C24.2147 38.288 25.3585 37.9215 26.4404 37.4471C26.7804 37.2962 26.935 36.8974 26.7907 36.5416C26.6671 36.1966 26.2755 36.0241 25.9458 36.1751ZM19.7839 40.2393C18.6917 40.2393 17.8055 39.3121 17.8055 38.1694C17.8055 38.1479 17.8055 38.1263 17.8055 38.1048C17.8055 38.094 17.8158 38.0832 17.8158 38.0616C17.8261 38.0077 17.8261 37.9538 17.8261 37.8999C17.9498 36.8866 18.7844 36.0996 19.7839 36.0996C20.7834 36.0996 21.618 36.8866 21.7417 37.8999C21.7417 37.9538 21.7417 38.0077 21.752 38.0616C21.752 38.0724 21.7623 38.0832 21.7623 38.094C21.7623 38.1155 21.7623 38.1371 21.7623 38.1694C21.7623 39.3121 20.8761 40.2393 19.7839 40.2393Z" fill="#BDF9F7"/>
<path d="M33.241 30.9035C32.9525 30.6663 32.5403 30.731 32.3136 31.0328C31.479 32.154 30.5207 33.1673 29.4388 34.0405C29.1503 34.2777 29.0987 34.7089 29.3151 35.0108C29.4491 35.1833 29.6449 35.2803 29.8406 35.2803C29.9849 35.2803 30.1188 35.2372 30.2425 35.1401C31.4069 34.2022 32.4476 33.1027 33.3543 31.8845C33.581 31.5719 33.5295 31.1406 33.241 30.9035Z" fill="#BDF9F7"/>
<path d="M10.1289 34.0405C9.05725 33.1673 8.08865 32.1648 7.25401 31.0329C7.02732 30.731 6.61515 30.6771 6.32664 30.9035C6.03812 31.1407 5.9866 31.5719 6.20299 31.8737C7.09945 33.0919 8.15048 34.1807 9.31485 35.1293C9.4385 35.2263 9.57245 35.2695 9.71671 35.2695C9.91249 35.2695 10.1083 35.1724 10.2422 35C10.4689 34.6981 10.4174 34.2669 10.1289 34.0405Z" fill="#BDF9F7"/>
<path d="M13.3749 5.72065C13.4573 5.72065 13.55 5.69909 13.6325 5.66675C14.6011 5.23553 15.6109 4.91212 16.6413 4.69652C17.0638 6.09796 18.3106 7.1221 19.7944 7.1221C21.2679 7.1221 22.525 6.09796 22.9474 4.69652C23.9779 4.91212 24.9877 5.23553 25.9563 5.66675C26.0387 5.69909 26.1314 5.72065 26.2139 5.72065C26.4715 5.72065 26.7188 5.55895 26.8218 5.30022C26.9661 4.94446 26.8115 4.54559 26.4715 4.39466C25.3792 3.90955 24.2458 3.55379 23.0814 3.31663C22.8959 1.58098 21.4842 0.222656 19.7841 0.222656C18.0839 0.222656 16.6722 1.58098 16.5073 3.31663C15.343 3.55379 14.2095 3.92033 13.1173 4.39466C12.7772 4.54559 12.6227 4.94446 12.7669 5.30022C12.87 5.55895 13.1173 5.72065 13.3749 5.72065ZM19.7841 1.60255C20.8763 1.60255 21.7625 2.52966 21.7625 3.67238C21.7625 3.69394 21.7625 3.7155 21.7625 3.73706C21.7625 3.75862 21.7522 3.7694 21.7522 3.79096C21.7418 3.84486 21.7418 3.89877 21.7418 3.95267C21.6182 4.96602 20.7836 5.75299 19.7841 5.75299C18.7845 5.75299 17.9499 4.96602 17.8263 3.95267C17.8263 3.89877 17.8263 3.84486 17.816 3.79096C17.816 3.7694 17.8057 3.75862 17.8057 3.73706C17.8057 3.7155 17.8057 3.69394 17.8057 3.68316C17.8057 2.52966 18.6918 1.60255 19.7841 1.60255Z" fill="#BDF9F7"/>
<path d="M6.32664 10.9385C6.45029 11.0355 6.58424 11.0786 6.7285 11.0786C6.92428 11.0786 7.12006 10.9816 7.25401 10.8091C8.08865 9.68799 9.04694 8.67464 10.1289 7.80144C10.4174 7.56427 10.4689 7.13306 10.2525 6.83121C10.0258 6.52936 9.61367 6.47546 9.32516 6.70185C8.15048 7.66129 7.09945 8.7501 6.20299 9.96827C5.9866 10.2701 6.03812 10.7013 6.32664 10.9385Z" fill="#BDF9F7"/>
<path d="M14.2094 29.1247L19.4852 31.8844C19.4955 31.8844 19.4955 31.8844 19.5058 31.8952C19.5161 31.8952 19.5264 31.906 19.5367 31.906C19.5573 31.9168 19.5676 31.9168 19.5882 31.9276C19.5985 31.9276 19.6088 31.9383 19.6191 31.9383C19.6397 31.9383 19.6603 31.9491 19.6809 31.9491C19.6912 31.9491 19.7016 31.9491 19.7016 31.9491C19.7325 31.9491 19.7531 31.9599 19.784 31.9599C19.8149 31.9599 19.8355 31.9599 19.8664 31.9491C19.8767 31.9491 19.8767 31.9491 19.887 31.9491C19.9076 31.9491 19.9282 31.9383 19.9489 31.9383C19.9592 31.9383 19.9695 31.9383 19.9695 31.9276C19.9901 31.9168 20.0107 31.9168 20.0313 31.906C20.0416 31.906 20.0416 31.8952 20.0519 31.8952C20.0622 31.8952 20.0622 31.8844 20.0725 31.8844L25.3482 29.1247C25.5749 29.0061 25.7089 28.7689 25.7089 28.5102V23.4219L30.624 20.8562C30.8507 20.7376 30.9846 20.5005 30.9846 20.2417V14.733V14.7222C30.9846 14.6575 30.9743 14.6036 30.964 14.5497C30.9537 14.5282 30.9537 14.5066 30.9434 14.4743V14.4635C30.9331 14.4419 30.9228 14.4204 30.9125 14.3988C30.9125 14.388 30.9022 14.388 30.9022 14.3773C30.8919 14.3557 30.8816 14.3449 30.8713 14.3233C30.8713 14.3126 30.861 14.3126 30.861 14.3018C30.8507 14.2802 30.8404 14.2694 30.8198 14.2587C30.8094 14.2479 30.8094 14.2479 30.7991 14.2371C30.7888 14.2263 30.7682 14.2048 30.7579 14.194C30.7476 14.1832 30.7373 14.1832 30.7373 14.1724C30.727 14.1616 30.7064 14.1509 30.6961 14.1401L30.6858 14.1293C30.6755 14.1293 30.6652 14.1185 30.6652 14.1185C30.6549 14.1077 30.6446 14.1077 30.6343 14.097L25.3585 11.3372C25.1731 11.2402 24.9567 11.2402 24.7712 11.3372L19.784 13.9353L14.8071 11.3264C14.6216 11.2294 14.4052 11.2294 14.2197 11.3264L8.944 14.0862C8.93369 14.0862 8.93369 14.097 8.92339 14.097C8.91309 14.1077 8.90278 14.1077 8.89248 14.1185C8.88217 14.1185 8.88217 14.1293 8.88217 14.1293C8.87187 14.1401 8.86157 14.1401 8.85126 14.1509C8.84096 14.1616 8.82035 14.1724 8.81004 14.1832C8.79974 14.194 8.78944 14.2048 8.77913 14.2155C8.76883 14.2263 8.75852 14.2371 8.74822 14.2479C8.73792 14.2587 8.72761 14.2694 8.71731 14.2802C8.707 14.291 8.6967 14.3018 8.68639 14.3233C8.67609 14.3341 8.67609 14.3449 8.66579 14.3557C8.65548 14.3665 8.65548 14.388 8.64518 14.3988C8.63487 14.4096 8.63487 14.4204 8.62457 14.4419C8.61426 14.4527 8.61427 14.4743 8.60396 14.4851C8.60396 14.4958 8.59366 14.5066 8.59366 14.5174C8.59366 14.539 8.58335 14.5605 8.58335 14.5713C8.58335 14.5821 8.58335 14.5929 8.57305 14.6036C8.57305 14.636 8.56274 14.6683 8.56274 14.7007V20.2202C8.56274 20.4789 8.707 20.7161 8.92339 20.8346L13.8385 23.4004V28.4886C13.8488 28.7689 13.993 29.0061 14.2094 29.1247ZM20.4435 19.7997V15.8218L24.4003 17.8916V21.8696L20.4435 19.7997ZM19.784 21.0071L23.5862 22.9907L19.784 24.9743L15.9817 22.9907L19.784 21.0071ZM15.1677 17.9024L19.1245 15.8326V19.8105L15.1677 21.8803V17.9024ZM15.1677 24.1119L19.1245 26.1817V30.1596L15.1677 28.0898V24.1119ZM20.4435 30.1488V26.1709L24.4003 24.1011V28.079L20.4435 30.1488ZM25.7192 21.8696V17.9024L29.676 15.8326V19.8105L25.7192 21.8696ZM25.0597 12.7279L28.862 14.7114L25.0597 16.695L21.2575 14.7114L25.0597 12.7279ZM14.5083 12.7279L18.3105 14.7114L14.5083 16.695L10.706 14.7114L14.5083 12.7279ZM9.89198 15.8326L13.8488 17.9024V21.8803L9.89198 19.7997V15.8326Z" fill="#BDF9F7"/>
</svg>
